# xmcd
#
# Track frame offsets: 
#        150
#        17487
#        35924
#        48579
#        62735
#        82173
#        100018
#        112796
#        131105
#        151530
#        169788
#        185062
#        204435
#        218681
#
# Disc length: 3155 seconds
#
# Revision: 0
# Processed by: cddbd v1.5.2PL0 Copyright (c) Steve Scherf et al.
# Submitted via: ExactAudioCopy v0.99pb4
#
DISCID=ba0c510e
DTITLE=Mariza Reis Nunes - Terra
DYEAR=2008
DGENRE=Blues
TTITLE0=Já me deixou
TTITLE1=Minh' alma
TTITLE2=Rosa branca
TTITLE3=Recurso
TTITLE4=Beijo de saudade
TTITLE5=Vozes do mar
TTITLE6=Fronteira
TTITLE7=Alfama
TTITLE8=Tasco da Mouraria
TTITLE9=Alma de vento
TTITLE10=Se eu mandasse nas palavras
TTITLE11=As guitarras
TTITLE12=Pequenas verdades
TTITLE13=Morada aberta
EXTD=
EXTT0=
EXTT1=
EXTT2=
EXTT3=
EXTT4=
EXTT5=
EXTT6=
EXTT7=
EXTT8=
EXTT9=
EXTT10=
EXTT11=
EXTT12=
EXTT13=
PLAYORDER=
